<svg data-v-423bf9ae="" xmlns="http://www.w3.org/2000/svg" viewBox="0 0 475 90" class="iconLeft"><!----><!----><!----><g data-v-423bf9ae="" id="52514878-6a6c-4cb6-bee5-d194da5effdf" fill="#000000" transform="matrix(5.597014785954833,0,0,5.597014785954833,152.68362590661948,-7.332087380407025)"><path d="M2.59 11.19L2.59 11.19Q2.59 12.35 3.00 12.86Q3.40 13.37 4.27 13.37L4.27 13.37Q5.07 13.37 5.79 13.00Q6.51 12.63 7 11.97L7 11.97L7.32 12.11Q6.86 13.30 5.72 14.01Q4.58 14.71 3.33 14.71L3.33 14.71Q1.71 14.71 0.99 13.89Q0.27 13.08 0.27 11.27L0.27 11.27Q0.27 10.11 0.56 8.85Q0.85 7.59 1.37 6.59L1.37 6.59Q2.04 5.32 3.00 4.65Q3.96 3.99 5.15 3.99L5.15 3.99Q6.27 3.99 6.88 4.47Q7.49 4.96 7.49 5.87L7.49 5.87Q7.49 6.50 7.24 6.83Q6.99 7.15 6.51 7.15L6.51 7.15Q6.27 7.15 6.07 7.06Q5.87 6.97 5.71 6.79L5.71 6.79Q5.96 6.66 6.16 6.28Q6.36 5.89 6.36 5.50L6.36 5.50Q6.36 5.10 6.13 4.87Q5.91 4.65 5.50 4.65L5.50 4.65Q4.89 4.65 4.28 5.40Q3.68 6.15 3.23 7.46L3.23 7.46Q2.93 8.36 2.76 9.33Q2.59 10.30 2.59 11.19ZM9.56 9.17L8.44 14.49L6.43 14.49L7.91 7.49L9.93 7.49L9.74 8.36Q10.36 7.84 10.72 7.67Q11.07 7.49 11.44 7.49L11.44 7.49Q11.87 7.49 12.14 7.79Q12.40 8.09 12.40 8.54L12.40 8.54Q12.40 8.97 12.12 9.27Q11.84 9.56 11.40 9.56L11.40 9.56Q11.16 9.56 11.03 9.45Q10.89 9.34 10.84 8.99L10.84 8.99Q10.79 8.76 10.74 8.70Q10.68 8.64 10.58 8.64L10.58 8.64Q10.35 8.64 10.14 8.74Q9.93 8.83 9.56 9.17L9.56 9.17ZM16.53 8.13L16.53 8.13L16.53 8.23L16.69 7.49L18.70 7.49L17.70 12.25Q17.67 12.38 17.65 12.48Q17.64 12.59 17.64 12.70L17.64 12.70Q17.64 13.01 17.78 13.15Q17.92 13.30 18.21 13.30L18.21 13.30Q18.58 13.30 18.87 12.96Q19.17 12.61 19.35 11.98L19.35 11.98L19.94 11.98Q19.49 13.27 18.77 13.92Q18.06 14.57 17.12 14.57L17.12 14.57Q16.52 14.57 16.16 14.24Q15.81 13.90 15.75 13.29L15.75 13.29Q15.32 13.93 14.79 14.25Q14.27 14.57 13.66 14.57L13.66 14.57Q12.80 14.57 12.30 13.99Q11.80 13.40 11.80 12.32L11.80 12.32Q11.80 11.54 12.04 10.68Q12.28 9.83 12.70 9.13L12.70 9.13Q13.22 8.30 13.90 7.86Q14.59 7.42 15.40 7.42L15.40 7.42Q15.95 7.42 16.24 7.61Q16.53 7.80 16.53 8.13ZM15.74 11.98L16.41 8.82Q16.41 8.61 16.25 8.45Q16.10 8.29 15.83 8.29L15.83 8.29Q15.06 8.29 14.47 9.58Q13.87 10.86 13.87 12.12L13.87 12.12Q13.87 12.67 14.03 12.94Q14.18 13.22 14.57 13.22L14.57 13.22Q14.94 13.22 15.28 12.87Q15.62 12.52 15.74 11.98L15.74 11.98ZM24.49 8.65L24.49 8.65Q24.49 9.13 24.28 9.40Q24.08 9.67 23.74 9.67L23.74 9.67Q23.63 9.67 23.51 9.63Q23.38 9.59 23.25 9.51L23.25 9.51Q23.34 9.28 23.38 9.07Q23.42 8.86 23.42 8.68L23.42 8.68Q23.42 8.40 23.32 8.25Q23.23 8.11 23.03 8.11L23.03 8.11Q22.41 8.11 21.83 9.53Q21.24 10.95 21.24 12.22L21.24 12.22Q21.24 12.87 21.46 13.13Q21.67 13.40 22.25 13.40L22.25 13.40Q22.90 13.40 23.46 13.10Q24.01 12.80 24.72 11.98L24.72 11.98L25.20 11.98Q24.39 13.30 23.44 13.94Q22.48 14.57 21.35 14.57L21.35 14.57Q20.27 14.57 19.72 14.01Q19.17 13.45 19.17 12.35L19.17 12.35Q19.17 11.55 19.41 10.65Q19.66 9.76 20.09 9.06L20.09 9.06Q20.61 8.22 21.33 7.79Q22.05 7.36 22.93 7.36L22.93 7.36Q23.70 7.36 24.09 7.69Q24.49 8.02 24.49 8.65ZM26.22 4.97L28.29 4.69L27.24 9.62L29.95 7.49L31.33 7.49L28.53 9.44Q28.73 9.41 28.82 9.39Q28.91 9.38 28.99 9.38L28.99 9.38Q29.71 9.38 30.12 9.83Q30.53 10.28 30.53 11.02L30.53 11.02Q30.53 11.16 30.52 11.29Q30.51 11.42 30.48 11.55L30.48 11.55L30.32 12.25Q30.30 12.42 30.28 12.53Q30.25 12.64 30.25 12.70L30.25 12.70Q30.25 12.96 30.39 13.09Q30.52 13.22 30.80 13.22L30.80 13.22Q31.15 13.22 31.40 12.98Q31.65 12.74 31.98 11.98L31.98 11.98L32.56 11.98Q32.13 13.27 31.49 13.92Q30.84 14.57 29.99 14.57L29.99 14.57Q29.13 14.57 28.68 14.16Q28.22 13.75 28.22 12.98L28.22 12.98Q28.22 12.81 28.25 12.63Q28.27 12.45 28.31 12.25L28.31 12.25L28.42 11.70Q28.45 11.58 28.46 11.45Q28.48 11.33 28.48 11.19L28.48 11.19Q28.48 10.85 28.35 10.68Q28.22 10.51 27.97 10.51L27.97 10.51Q27.76 10.51 27.52 10.63Q27.27 10.75 26.94 11.03L26.94 11.03L26.21 14.49L24.19 14.49L26.22 4.97ZM38.14 11.56L41.22 4.19L43.23 4.19L41.76 14.49L39.75 14.49L40.64 8.20L38.01 14.49L36.09 14.49L36.37 8.18L34.03 14.49L32.91 14.49L36.47 4.87Q35.39 5.24 34.82 6.05Q34.24 6.86 34.24 8.02L34.24 8.02Q34.24 8.30 34.28 8.50Q34.31 8.71 34.40 8.88L34.40 8.88Q34.43 8.93 34.43 8.95Q34.44 8.97 34.44 8.99L34.44 8.99Q33.68 8.99 33.31 8.67Q32.94 8.36 32.94 7.71L32.94 7.71Q32.94 7.04 33.36 6.35Q33.77 5.66 34.50 5.08L34.50 5.08Q35.15 4.56 35.91 4.28Q36.67 3.99 37.39 3.99L37.39 3.99Q37.66 3.99 37.93 4.04Q38.21 4.09 38.46 4.19L38.46 4.19L38.14 11.56ZM42.80 12.33L42.80 12.33Q42.80 11.54 43.06 10.64Q43.32 9.74 43.76 9.04L43.76 9.04Q44.28 8.22 45.01 7.79Q45.74 7.36 46.63 7.36L46.63 7.36Q47.53 7.36 47.98 7.92Q48.43 8.48 48.43 9.60L48.43 9.60Q48.45 9.62 48.49 9.63Q48.52 9.63 48.58 9.63L48.58 9.63Q49.01 9.63 49.62 9.39Q50.22 9.16 50.74 8.79L50.74 8.79L50.86 9.17Q50.47 9.59 49.82 9.90Q49.17 10.21 48.38 10.33L48.38 10.33Q48.22 12.22 47.29 13.38Q46.37 14.55 45.04 14.55L45.04 14.55Q43.95 14.55 43.37 13.99Q42.80 13.43 42.80 12.33ZM46.75 8.22L46.75 8.22Q46.07 8.22 45.48 9.58Q44.88 10.93 44.88 12.15L44.88 12.15Q44.88 12.81 45.03 13.05Q45.18 13.29 45.60 13.29L45.60 13.29Q46.12 13.29 46.59 12.45Q47.05 11.61 47.22 10.37L47.22 10.37Q47.03 10.33 46.94 10.19Q46.84 10.04 46.84 9.79L46.84 9.79Q46.84 9.52 46.96 9.32Q47.07 9.13 47.28 9.03L47.28 9.03Q47.25 8.58 47.13 8.40Q47.01 8.22 46.75 8.22ZM51.42 12.12L51.42 12.12Q51.42 12.67 51.58 12.94Q51.73 13.22 52.12 13.22L52.12 13.22Q52.47 13.22 52.81 12.89Q53.14 12.56 53.27 12.05L53.27 12.05L53.27 11.98L53.96 8.78Q53.91 8.55 53.77 8.42Q53.62 8.29 53.38 8.29L53.38 8.29Q52.61 8.29 52.02 9.58Q51.42 10.86 51.42 12.12ZM54.08 8.13L54.08 8.13L54.08 8.19L54.77 4.97L56.84 4.69L55.23 12.25Q55.20 12.38 55.19 12.48Q55.17 12.59 55.17 12.70L55.17 12.70Q55.17 12.98 55.31 13.10Q55.44 13.22 55.75 13.22L55.75 13.22Q56.11 13.22 56.41 12.89Q56.70 12.57 56.88 11.98L56.88 11.98L57.47 11.98Q57.04 13.23 56.34 13.86Q55.65 14.49 54.66 14.49L54.66 14.49Q54.08 14.49 53.73 14.18Q53.37 13.86 53.28 13.29L53.28 13.29Q52.86 13.93 52.35 14.25Q51.83 14.57 51.21 14.57L51.21 14.57Q50.34 14.57 49.85 13.99Q49.35 13.40 49.35 12.32L49.35 12.32Q49.35 11.54 49.59 10.68Q49.83 9.83 50.25 9.13L50.25 9.13Q50.76 8.30 51.45 7.86Q52.14 7.42 52.95 7.42L52.95 7.42Q53.49 7.42 53.79 7.61Q54.08 7.80 54.08 8.13Z"></path></g><defs data-v-423bf9ae=""><linearGradient data-v-423bf9ae="" gradientTransform="rotate(25)" id="951411ad-399f-4026-a95d-a51686845034" x1="0%" y1="0%" x2="100%" y2="0%"><stop data-v-423bf9ae="" offset="0%" style="stop-color: rgb(66, 15, 20); stop-opacity: 1;"></stop><stop data-v-423bf9ae="" offset="100%" style="stop-color: rgb(197, 84, 94); stop-opacity: 1;"></stop></linearGradient></defs><g data-v-423bf9ae="" id="034a0182-c083-4db8-bf69-5e192f490c70" transform="matrix(1.4910536628550872,0,0,1.4910536628550872,-6.552683142754361,-28.732683447930143)" stroke="none" fill="url(#951411ad-399f-4026-a95d-a51686845034)"><path d="M58.808 35.669c-1.62-10.905-12.599-15.849-25.79-15.849h-.784C18.424 19.82 5.759 27.966 5 39.971h3.617c1.201-9.915 12.102-16.254 23.669-16.254h.679c10.974 0 20.197 3.25 22.142 12.047l-40.678 1.047v40.603L95 80.18V34.737l-36.192.932zm31.697 42.247l-71.581-2.768V39.077l71.581-2.075v40.914z"></path><path d="M54.065 71.18a1.904 1.904 0 01-1.965 1.842l-5.871-.189a1.905 1.905 0 01-1.841-1.965 1.903 1.903 0 011.965-1.842l5.87.189a1.904 1.904 0 011.842 1.965zM65.04 71.535a1.904 1.904 0 01-1.965 1.842l-5.871-.189a1.905 1.905 0 01-1.842-1.965 1.906 1.906 0 011.966-1.842l5.87.191a1.902 1.902 0 011.842 1.963zM85.008 46.297a5.592 5.592 0 10-9.767 5.45 5.592 5.592 0 009.767-5.45zm-4.884.272c.107-.564.192-1.138.258-1.719a5.576 5.576 0 013.562 2.703c.264.473.446.967.562 1.468a8.51 8.51 0 00-4.382-2.452zM82.529 59.475a4.169 4.169 0 00-5.674-1.609 4.168 4.168 0 00-1.61 5.674 4.17 4.17 0 007.284-4.065zm-3.297.097c.07-.367.125-.738.168-1.115a3.613 3.613 0 012.672 2.703 5.518 5.518 0 00-2.84-1.588zM72.824 54.846a4.6 4.6 0 00-6.26-1.777 4.6 4.6 0 00-1.777 6.26 4.599 4.599 0 006.26 1.777 4.6 4.6 0 001.777-6.26zm-3.877.111c.086-.453.154-.912.207-1.377a4.46 4.46 0 013.304 3.342 6.804 6.804 0 00-3.511-1.965zM34.844 53.297l.182-5.711-6.381.608-.086 5.517-5.527.363v6.078l5.431-.172-.085 5.518h6.078l.182-5.711 5.432-.17.304-6.686-5.53.366zm-.647-1.6l-.971.787.1-3.145-2 .19 1.202-.975 1.774-.169-.105 3.312z"></path></g><!----></svg>